<svg width="216" height="59" viewBox="0 0 216 59" fill="none" xmlns="http://www.w3.org/2000/svg">
<path d="M7.64868 2.52075C8.2041 2.85306 8.6661 3.29329 9.13322 3.73792C9.51677 4.09633 9.92231 4.41737 10.3378 4.73766C10.6377 4.98485 10.903 5.25647 11.1777 5.53125C11.4259 5.75194 11.6799 5.96554 11.934 6.17944C12.4677 6.63227 12.9915 7.09272 13.504 7.56946C14.0225 8.05101 14.5577 8.50573 15.1115 8.94642C15.4414 9.21875 15.4414 9.21875 15.6455 9.44306C16.131 9.94765 16.4905 10.2005 17.1983 10.2546C17.4797 10.2587 17.7613 10.2577 18.0427 10.2528C18.2001 10.2533 18.3574 10.2543 18.5147 10.2556C18.9449 10.258 19.3748 10.2548 19.805 10.2506C20.2697 10.2471 20.7344 10.2489 21.1991 10.2501C22.0039 10.2515 22.8086 10.2495 23.6133 10.2453C24.7781 10.2394 25.9429 10.2389 27.1078 10.2399C28.9997 10.2414 30.8915 10.2391 32.7834 10.2341C32.8965 10.2338 33.0097 10.2335 33.1263 10.2332C33.2962 10.2327 33.2962 10.2327 33.4696 10.2323C35.0751 10.2281 36.6806 10.2247 38.2862 10.2225C38.3991 10.2223 38.5121 10.2222 38.6284 10.222C40.5131 10.2194 42.3977 10.2187 44.2824 10.219C45.444 10.219 46.6056 10.2171 47.7671 10.2128C48.5633 10.2099 49.3595 10.2085 50.1557 10.2084C50.6147 10.2083 51.0737 10.2074 51.5327 10.2044C51.9535 10.2017 52.3742 10.2011 52.7951 10.2022C53.018 10.2023 53.241 10.2 53.464 10.1976C54.8825 10.2055 55.9903 10.5993 57.0046 11.5995C58.0418 12.7351 58.2288 14.0055 58.2234 15.4967C58.2238 15.6265 58.2243 15.7562 58.2247 15.89C58.2259 16.323 58.2255 16.7561 58.225 17.1892C58.2255 17.5004 58.2261 17.8117 58.2268 18.123C58.2283 18.8796 58.2285 19.6362 58.2282 20.3929C58.228 21.0082 58.2282 21.6236 58.2287 22.239C58.2288 22.3267 58.2288 22.4144 58.2289 22.5048C58.229 22.6831 58.2292 22.8613 58.2293 23.0396C58.2306 24.7097 58.2303 26.3798 58.2296 28.0499C58.229 29.5757 58.2303 31.1016 58.2325 32.6274C58.2347 34.1963 58.2357 35.7652 58.2353 37.3341C58.235 38.214 58.2353 39.094 58.237 39.9739C58.2383 40.7231 58.2385 41.4723 58.2371 42.2215C58.2364 42.6032 58.2365 42.985 58.2377 43.3667C58.2389 43.7818 58.2379 44.1968 58.2365 44.6118C58.2373 44.7308 58.2382 44.8498 58.2391 44.9724C58.2279 46.4886 57.8499 47.6211 56.8322 48.7441C55.6691 49.8685 54.2986 49.9802 52.7672 49.9652C52.5725 49.9654 52.3778 49.9659 52.183 49.9666C51.7665 49.9676 51.3501 49.9668 50.9336 49.9647C50.275 49.9613 49.6165 49.9622 48.9579 49.9637C47.6802 49.9661 46.4025 49.9643 45.1247 49.9619C43.495 49.959 41.8652 49.9576 40.2355 49.9608C39.5806 49.9619 38.9259 49.9608 38.2711 49.9578C37.8646 49.9564 37.4582 49.9569 37.0518 49.9579C36.8632 49.9579 36.6746 49.9572 36.486 49.9556C36.2288 49.9536 35.9718 49.9543 35.7146 49.9558C35.4987 49.9553 35.4987 49.9553 35.2784 49.9548C34.8457 50.0228 34.7193 50.1308 34.4551 50.4727C33.9421 51.407 33.9686 52.6383 34.1715 53.6691C34.3248 54.1165 34.5441 54.4458 34.916 54.7363C35.2309 54.8413 35.4142 54.8659 35.7379 54.8661C35.8333 54.8665 35.9287 54.867 36.027 54.8674C36.1809 54.8676 36.1809 54.8676 36.338 54.8678C36.5553 54.8699 36.7727 54.8721 36.99 54.8745C37.3327 54.8779 37.6753 54.8804 38.018 54.8804C38.3487 54.8808 38.6793 54.8848 39.01 54.8894C39.1124 54.8886 39.2148 54.8878 39.3203 54.8869C40.03 54.9009 40.03 54.9009 40.3962 55.2381C40.6025 55.6164 40.6421 55.8099 40.5625 56.2344C40.2561 56.6268 40.0851 56.7925 39.5895 56.8831C39.4346 56.8862 39.2796 56.8862 39.1247 56.8837C39.039 56.8846 38.9533 56.8855 38.8649 56.8864C38.5782 56.8887 38.2916 56.8869 38.0048 56.8851C37.7991 56.8859 37.5933 56.8869 37.3875 56.8882C36.829 56.8908 36.2705 56.8898 35.7119 56.888C35.1274 56.8865 34.543 56.8878 33.9585 56.8888C32.977 56.8898 31.9955 56.8884 31.014 56.8857C29.8792 56.8825 28.7444 56.8836 27.6095 56.8867C26.6353 56.8893 25.661 56.8897 24.6868 56.8882C24.1049 56.8873 23.523 56.8872 22.941 56.8891C22.3939 56.8908 21.8469 56.8896 21.2998 56.8863C21.099 56.8855 20.8982 56.8857 20.6974 56.887C20.4233 56.8886 20.1494 56.8866 19.8753 56.8837C19.7958 56.885 19.7162 56.8863 19.6343 56.8876C19.198 56.8787 19.0207 56.8162 18.6758 56.5395C18.4375 56.2344 18.4375 56.2344 18.3727 55.8887C18.4565 55.4415 18.5613 55.2753 18.8984 54.9668C19.2677 54.884 19.6301 54.8947 20.0071 54.9015C20.1691 54.9006 20.1691 54.9006 20.3343 54.8996C20.6792 54.8977 21.0239 54.8995 21.3688 54.902C21.7132 54.9039 22.0576 54.9049 22.402 54.9032C22.6162 54.9021 22.8304 54.9032 23.0446 54.9066C23.5204 54.9046 23.7844 54.8933 24.1992 54.6427C24.8556 53.9247 24.91 52.9028 24.8906 51.9707C24.7843 51.2738 24.6421 50.5745 24.1992 50.0117C23.837 49.9259 23.837 49.9259 23.4101 49.9419C23.3294 49.9414 23.2487 49.9408 23.1655 49.9403C22.8942 49.9391 22.6232 49.942 22.3519 49.9449C22.1577 49.9449 21.9635 49.9446 21.7693 49.944C21.3505 49.9434 20.9317 49.9446 20.513 49.9471C19.8499 49.951 19.1868 49.9505 18.5237 49.9494C16.995 49.9474 15.4664 49.9512 13.9377 49.955C12.5395 49.9585 11.1413 49.9607 9.74304 49.9583C9.0849 49.9573 8.42684 49.9591 7.76872 49.9631C7.35745 49.965 6.9462 49.9645 6.53493 49.9634C6.34541 49.9634 6.15589 49.9643 5.96638 49.9663C4.37211 49.9826 3.14783 49.694 1.97339 48.5497C0.945211 47.4308 0.752939 46.0933 0.763517 44.6118C0.763059 44.4815 0.762601 44.3511 0.762129 44.2169C0.761028 43.784 0.762378 43.3512 0.763737 42.9184C0.763648 42.6066 0.763041 42.2947 0.762462 41.9828C0.761373 41.2261 0.762125 40.4694 0.763529 39.7127C0.765105 38.8305 0.76491 37.9483 0.764667 37.066C0.7643 35.4916 0.76564 33.9172 0.767901 32.3427C0.770092 30.8167 0.770906 29.2906 0.770264 27.7645C0.769565 26.1003 0.769587 24.436 0.770896 22.7717C0.771035 22.5941 0.771174 22.4165 0.771313 22.239C0.771383 22.1516 0.771452 22.0642 0.771524 21.9742C0.77197 21.3599 0.771925 20.7456 0.771706 20.1313C0.771461 19.3825 0.772067 18.6337 0.773736 17.8849C0.774569 17.5032 0.774919 17.1215 0.774515 16.7398C0.774143 16.3254 0.775192 15.911 0.776599 15.4967C0.776164 15.3769 0.775728 15.2571 0.77528 15.1337C0.784542 13.59 1.16718 12.4666 2.23402 11.3317C3.11847 10.5411 4.14265 10.2597 5.30078 10.1406C5.10192 9.9745 4.90256 9.80897 4.703 9.64368C4.59204 9.55143 4.48108 9.45919 4.36675 9.36414C4.04664 9.10291 4.04664 9.10291 3.72531 8.91941C3.01071 8.48897 2.50475 7.71544 2.30469 6.91406C2.20154 5.88574 2.19791 4.93333 2.76562 4.0332C2.82623 3.92581 2.82623 3.92581 2.88806 3.81624C3.82528 2.31279 6.06125 1.7985 7.64868 2.52075ZM4.57336 4.76062C4.23233 5.30375 4.06984 5.81126 4.14844 6.45313C4.46495 7.11656 4.8323 7.49959 5.41602 7.93677C5.48702 7.99262 5.55802 8.04847 5.63118 8.10602C5.98238 8.37583 6.24315 8.55442 6.68359 8.64258C6.76574 8.53682 6.84788 8.43105 6.93252 8.32208C7.52179 7.56611 8.11229 6.81684 8.75781 6.10742C8.57628 5.65254 8.28181 5.38867 7.92236 5.06311C7.81482 4.96433 7.70727 4.86555 7.59647 4.76377C7.0496 4.32584 6.59366 4.08416 5.8792 4.11558C5.34173 4.19147 4.95474 4.37925 4.57336 4.76062ZM10.1406 7.25977C9.97733 7.43825 9.8228 7.62479 9.67249 7.81433C9.53523 7.98635 9.53523 7.98635 9.3952 8.16184C9.34752 8.22192 9.29984 8.28201 9.25071 8.34392C9.10423 8.52646 8.95506 8.70636 8.80463 8.88565C8.71075 8.99795 8.61687 9.11025 8.52014 9.22595C8.43324 9.32949 8.34634 9.43302 8.25681 9.5397C8.04344 9.77264 8.04344 9.77264 8.06641 10.0254C8.29272 10.2195 8.52021 10.4005 8.75781 10.58C8.90677 10.6946 9.05561 10.8094 9.20435 10.9243C9.28248 10.9846 9.36061 11.0448 9.44112 11.1069C9.83292 11.4125 10.217 11.7273 10.6016 12.042C11.1733 12.5087 11.7483 12.9706 12.3301 13.4248C12.9915 13.9413 13.6434 14.4688 14.2936 14.9994C14.7874 15.4017 15.2851 15.7984 15.7871 16.1904C16.4486 16.7069 17.1004 17.2344 17.7506 17.765C18.2444 18.1673 18.7421 18.564 19.2441 18.9561C19.9921 19.5402 20.7286 20.138 21.4642 20.7377C21.9889 21.1653 22.5172 21.5883 23.0469 22.0098C23.3466 21.7152 23.6304 21.4141 23.9039 21.0951C24.2197 20.731 24.5447 20.3862 24.8906 20.0508C24.4622 19.6729 24.032 19.2974 23.5969 18.9272C22.8101 18.2577 22.0376 17.5766 21.2787 16.8755C20.758 16.3961 20.2234 15.9338 19.6844 15.4752C18.896 14.8036 18.1215 14.1212 17.3608 13.4185C16.84 12.9391 16.3055 12.4768 15.7664 12.0181C15.103 11.453 14.445 10.8851 13.8065 10.2919C13.2891 9.81121 12.7523 9.36246 12.2013 8.92076C11.7368 8.53177 11.2968 8.11788 10.8595 7.69868C10.5529 7.36654 10.5529 7.36654 10.1406 7.25977ZM3.53625 12.8198C3.46302 12.8822 3.38979 12.9446 3.31434 13.0089C2.74054 13.6959 2.71612 14.3832 2.72405 15.2405C2.72376 15.3576 2.72346 15.4747 2.72316 15.5954C2.72258 15.9881 2.72449 16.3808 2.72638 16.7736C2.72648 17.0598 2.72644 17.346 2.72625 17.6322C2.72618 18.3209 2.72766 19.0095 2.72988 19.6982C2.73238 20.495 2.73265 21.2919 2.73292 22.0888C2.73473 24.1919 2.73956 26.295 2.74402 28.3981C2.75115 33.0968 2.75828 37.7956 2.76562 42.6367C20.4103 42.6367 38.055 42.6367 56.2344 42.6367C56.2439 37.9403 56.2534 33.244 56.2632 28.4053C56.2674 26.9217 56.2716 25.4381 56.2759 23.9096C56.2774 22.5812 56.2774 22.5812 56.2784 21.2527C56.2788 20.6605 56.2805 20.0682 56.283 19.4759C56.2863 18.7206 56.2871 17.9653 56.2865 17.2099C56.2866 16.9326 56.2875 16.6553 56.2893 16.378C56.2916 16.0034 56.2911 15.629 56.2898 15.2544C56.2911 15.1459 56.2925 15.0374 56.2939 14.9257C56.2865 14.1073 56.0862 13.5069 55.5551 12.8783C55.4457 12.7852 55.4457 12.7852 55.3341 12.6902C55.226 12.5944 55.226 12.5944 55.1158 12.4966C54.341 12.0082 53.4896 12.0675 52.6049 12.0719C52.3871 12.0716 52.3871 12.0716 52.165 12.0713C51.7635 12.0708 51.362 12.0717 50.9604 12.0729C50.5269 12.0739 50.0934 12.0735 49.6599 12.0733C48.9092 12.0732 48.1586 12.0739 47.408 12.0752C46.3227 12.0771 45.2374 12.0777 44.1521 12.078C42.3912 12.0785 40.6303 12.08 38.8694 12.0822C37.159 12.0843 35.4487 12.086 33.7383 12.087C33.6329 12.087 33.5274 12.0871 33.4188 12.0871C32.8897 12.0874 32.3606 12.0877 31.8316 12.088C27.4437 12.0904 23.0558 12.0945 18.668 12.0996C19.6296 13.0628 20.6237 13.9736 21.6857 14.8256C22.1229 15.19 22.5356 15.578 22.9508 15.967C23.334 16.3239 23.7253 16.6625 24.1344 16.9899C24.7258 17.4641 25.2785 17.9727 25.8289 18.4933C26.0142 18.6682 26.2013 18.841 26.3887 19.0137C26.4811 19.101 26.5735 19.1884 26.6687 19.2784C27.0493 19.5305 27.4153 19.5817 27.8579 19.6403C28.9887 19.8254 29.7865 20.1884 30.5286 21.0937C31.6483 22.6859 32.297 24.5239 32.9674 26.3364C33.0172 26.469 33.0172 26.469 33.068 26.6044C33.1301 26.7704 33.1914 26.9367 33.2514 27.1035C33.4064 27.5159 33.5787 27.8516 33.8443 28.2046C34.1094 28.5781 34.1094 28.5781 34.1094 29.0103C33.942 29.5544 33.942 29.5544 33.6484 29.7305C31.2162 30.2024 28.3693 29.5664 26.3239 28.218C25.0574 27.3206 23.7891 26.1117 23.2962 24.594C23.1079 24.2015 22.8063 23.9965 22.4635 23.7455C22.3167 23.6342 22.1701 23.5228 22.0237 23.411C21.9463 23.3522 21.8689 23.2934 21.7891 23.2328C21.3744 22.9119 20.9725 22.5756 20.5693 22.2402C19.9136 21.697 19.2518 21.1634 18.5802 20.64C18.0663 20.2388 17.5597 19.8293 17.0547 19.417C16.471 18.9406 15.8838 18.4693 15.2902 18.0054C14.7187 17.5586 14.1539 17.1049 13.5936 16.6442C12.3027 15.5826 12.3027 15.5826 10.9963 14.5402C10.8983 14.4632 10.8983 14.4632 10.7983 14.3846C10.6668 14.2822 10.5345 14.1808 10.4014 14.0803C10.0371 13.8024 9.70837 13.5157 9.3898 13.1858C8.57815 12.3802 7.96602 12.0172 6.79849 11.9802C5.04309 11.9949 5.04309 11.9949 3.53625 12.8198ZM25.3988 22.0701C24.9878 22.5005 24.8906 22.9121 24.8906 23.4934C25.1237 24.7667 26.1246 25.7788 27.1161 26.5327C28.3644 27.3934 29.9226 28.002 31.459 28.002C31.2115 27.0885 30.8723 26.2284 30.5011 25.3588C30.4214 25.1681 30.4214 25.1681 30.3402 24.9737C29.4948 22.959 29.4948 22.959 27.8867 21.5488C27.044 21.2807 26.0789 21.5202 25.3988 22.0701ZM2.76562 44.4805C2.69811 46.0686 2.69811 46.0686 3.43813 47.2421C4.13456 47.8945 4.73365 48.0813 5.69228 48.0824C5.77603 48.0828 5.85979 48.0832 5.94609 48.0836C6.22687 48.0847 6.50762 48.0841 6.7884 48.0836C6.99169 48.084 7.19499 48.0845 7.39828 48.0851C7.95705 48.0866 8.51581 48.0865 9.07458 48.0862C9.67716 48.0862 10.2797 48.0875 10.8823 48.0886C12.0629 48.0905 13.2435 48.0911 14.4241 48.0912C15.3837 48.0914 16.3432 48.0918 17.3028 48.0926C20.0227 48.0946 22.7426 48.0956 25.4625 48.0955C25.6092 48.0955 25.7558 48.0955 25.9069 48.0954C26.1272 48.0954 26.1272 48.0954 26.3519 48.0954C28.732 48.0953 31.112 48.0975 33.4921 48.1008C35.9354 48.1041 38.3786 48.1057 40.8219 48.1055C42.1938 48.1054 43.5658 48.106 44.9377 48.1085C46.1057 48.1106 47.2738 48.1111 48.4418 48.1096C49.0378 48.1088 49.6337 48.1088 50.2297 48.1108C50.7754 48.1126 51.321 48.1123 51.8667 48.1103C52.064 48.1099 52.2613 48.1103 52.4585 48.1116C53.5797 48.1184 54.5669 48.1211 55.4669 47.3654C55.5276 47.2904 55.5884 47.2154 55.651 47.1381C55.7138 47.0634 55.7767 46.9886 55.8414 46.9117C56.4043 46.0743 56.2344 45.5985 56.2344 44.4805C38.5897 44.4805 20.945 44.4805 2.76562 44.4805ZM26.3887 49.8965C26.4647 50.2768 26.5408 50.657 26.6191 51.0488C26.6585 51.4887 26.6566 51.9254 26.6552 52.3668C26.657 52.4774 26.6589 52.588 26.6608 52.702C26.6609 52.8122 26.6609 52.9225 26.661 53.0362C26.6613 53.1332 26.6617 53.2303 26.662 53.3303C26.5973 53.8872 26.421 54.4259 26.2734 54.9668C28.3269 54.9668 30.3804 54.9668 32.4961 54.9668C32.382 54.5865 32.2679 54.2063 32.1504 53.8145C31.8733 52.4544 32.1069 51.2665 32.3809 49.8965C30.4034 49.8965 28.426 49.8965 26.3887 49.8965Z" fill="black"/>
<path d="M16.3246 25.4343C17.6258 26.5606 18.6386 27.9613 18.8087 29.7227C18.8989 31.5878 18.6585 33.1109 17.5156 34.6445C17.4292 34.7666 17.4292 34.7666 17.341 34.8912C16.4652 36.0147 14.9951 36.8464 13.5977 37.0645C11.5398 37.2563 9.82589 37.0126 8.18164 35.6816C8.06043 35.5937 7.93922 35.5058 7.81433 35.4152C6.70018 34.3505 5.90735 32.795 5.84229 31.2433C5.84005 31.0615 5.83965 30.8796 5.84094 30.6978C5.84159 30.6017 5.84224 30.5057 5.84291 30.4067C5.87984 28.5187 6.60414 27.0827 7.95117 25.7715C10.2463 23.6727 13.8638 23.5184 16.3246 25.4343ZM8.98828 27.3848C8.31379 28.2294 7.83227 29.0571 7.7207 30.1504C7.71328 30.2232 7.70585 30.296 7.6982 30.371C7.62784 31.6608 8.13911 32.8847 8.98828 33.8379C10.0209 34.836 11.2413 35.2622 12.6578 35.245C13.8969 35.1622 14.9894 34.5826 15.8303 33.6794C16.64 32.7032 17.0101 31.622 16.9746 30.3498C16.8275 29.0321 16.2758 27.9018 15.2771 27.0238C14.6799 26.5798 14.0875 26.2973 13.3672 26.1172C13.2697 26.091 13.1723 26.0649 13.0719 26.038C11.5957 25.8487 10.0632 26.3381 8.98828 27.3848Z" fill="black"/>
<path d="M43.4656 16.6493C43.5605 16.6485 43.6554 16.6477 43.7531 16.6469C44.0664 16.6449 44.3796 16.6462 44.6929 16.6478C44.9108 16.6475 45.1286 16.647 45.3465 16.6464C45.8029 16.6458 46.2593 16.6467 46.7158 16.6489C47.3009 16.6515 47.886 16.65 48.4711 16.6472C48.9209 16.6456 49.3707 16.6461 49.8205 16.6473C50.0363 16.6476 50.252 16.6472 50.4678 16.6462C50.7693 16.645 51.0707 16.6468 51.3722 16.6493C51.4615 16.6484 51.5507 16.6475 51.6426 16.6465C52.0218 16.6525 52.2766 16.6845 52.602 16.8849C52.8472 17.2835 52.8427 17.6475 52.8388 18.1017C52.8403 18.242 52.8403 18.242 52.8418 18.3852C52.8444 18.6942 52.8437 19.0031 52.8426 19.3121C52.8432 19.5271 52.8439 19.7421 52.8448 19.9571C52.846 20.4076 52.8454 20.8581 52.8438 21.3087C52.8418 21.8858 52.8445 22.4628 52.8485 23.0399C52.8511 23.4839 52.8509 23.9279 52.85 24.3718C52.8499 24.5846 52.8507 24.7974 52.8523 25.0101C52.8544 25.3078 52.8527 25.6053 52.8501 25.9029C52.8521 26.0345 52.8521 26.0345 52.8541 26.1688C52.8464 26.5999 52.7881 26.8339 52.5431 27.1922C52.113 27.486 51.7706 27.5071 51.2669 27.5003C51.1745 27.5013 51.082 27.5024 50.9868 27.5034C50.6821 27.5059 50.3776 27.5043 50.0729 27.5023C49.8607 27.5027 49.6485 27.5033 49.4362 27.504C48.9918 27.5048 48.5474 27.5036 48.103 27.5009C47.5337 27.4976 46.9646 27.4995 46.3953 27.503C45.9572 27.505 45.5191 27.5044 45.0809 27.5029C44.8711 27.5025 44.6612 27.503 44.4513 27.5043C44.1578 27.5058 43.8645 27.5035 43.571 27.5003C43.4845 27.5015 43.3981 27.5027 43.309 27.5039C42.8814 27.4952 42.6502 27.435 42.2948 27.1922C41.9982 26.7584 41.98 26.4109 41.9878 25.9029C41.987 25.8092 41.9862 25.7154 41.9853 25.6188C41.9834 25.3099 41.9856 25.0011 41.9881 24.6921C41.988 24.477 41.9877 24.2619 41.9872 24.0468C41.9869 23.5965 41.9886 23.1462 41.9918 22.6959C41.9957 22.1186 41.995 21.5414 41.9928 20.9641C41.9916 20.5202 41.9926 20.0762 41.9944 19.6323C41.995 19.4194 41.9949 19.2065 41.9942 18.9937C41.9936 18.6963 41.9959 18.3991 41.9991 18.1017C41.9983 18.0137 41.9976 17.9258 41.9968 17.8352C42.0036 17.4593 42.0374 17.2075 42.2358 16.8849C42.638 16.6372 43.0074 16.6445 43.4656 16.6493ZM43.9043 18.5527C43.9043 20.8344 43.9043 23.116 43.9043 25.4668C46.224 25.4668 48.5436 25.4668 50.9336 25.4668C50.9336 23.1852 50.9336 20.9035 50.9336 18.5527C48.6139 18.5527 46.2943 18.5527 43.9043 18.5527Z" fill="black"/>
<path d="M42.3441 32.4358C43.1745 33.0399 43.6967 33.7395 43.8791 34.7603C43.9763 35.8056 43.6909 36.6703 43.1192 37.5376C42.3752 38.3029 41.5435 38.6932 40.4621 38.73C39.4242 38.671 38.6555 38.2933 37.9121 37.5664C37.3318 36.8189 37.038 36.0087 37.0699 35.0542C37.2057 34.0861 37.6194 33.2396 38.373 32.6113C39.6544 31.8196 41.0083 31.6343 42.3441 32.4358ZM39.1941 34.6063C39.024 35.0127 39.0107 35.2852 39.0644 35.7227C39.3241 36.2227 39.5777 36.5405 40.1015 36.7598C40.5925 36.8223 40.8415 36.7944 41.2827 36.5653C41.7401 36.1806 41.9197 35.9234 41.9957 35.3265C41.9219 34.7253 41.6844 34.3868 41.2179 34.0085C40.3783 33.6571 39.7493 33.9215 39.1941 34.6063Z" fill="black"/>
<path d="M51.8946 32.5668C52.6836 33.2294 53.1619 33.933 53.268 34.9781C53.311 35.9959 53.0509 36.8025 52.4172 37.6024C51.7457 38.3098 50.9185 38.6762 49.9473 38.7264C48.9644 38.6997 48.1996 38.3731 47.4824 37.7019C46.6619 36.8264 46.478 36.0502 46.5074 34.8552C46.6134 33.9578 47.0634 33.2711 47.7192 32.6653C48.9813 31.6869 50.5766 31.658 51.8946 32.5668ZM48.5209 34.6639C48.3659 35.1289 48.3733 35.3672 48.5137 35.8379C48.7481 36.2576 48.9973 36.5685 49.4571 36.7368C49.9396 36.8175 50.1869 36.7874 50.6311 36.5653C50.9881 36.2508 51.2115 36.0171 51.3801 35.5714C51.4003 35.1379 51.2742 34.8162 51.0488 34.4551C50.6929 34.0661 50.424 33.8443 49.8965 33.8141C49.2624 33.8589 48.8779 34.1456 48.5209 34.6639Z" fill="black"/>
<path d="M22.2884 35.189C22.4092 35.1882 22.5299 35.1873 22.6543 35.1865C23.053 35.1845 23.4516 35.1868 23.8504 35.1892C24.1275 35.1891 24.4046 35.1889 24.6817 35.1884C25.2622 35.1881 25.8427 35.1898 26.4233 35.1929C27.1679 35.1969 27.9125 35.1962 28.6572 35.194C29.2293 35.1928 29.8013 35.1938 30.3734 35.1955C30.648 35.1961 30.9226 35.1961 31.1973 35.1954C31.5807 35.1947 31.9641 35.1971 32.3476 35.2002C32.4614 35.1995 32.5752 35.1987 32.6925 35.198C33.4608 35.2087 33.4608 35.2087 33.834 35.4816C34.0069 35.7418 34.0566 35.8739 34.0518 36.1836C34.0535 36.2977 34.0535 36.2977 34.0554 36.4141C33.96 36.7732 33.8364 36.8845 33.5332 37.1055C33.1347 37.1763 32.739 37.1684 32.3352 37.1651C32.2133 37.1659 32.0915 37.1667 31.966 37.1676C31.5629 37.1696 31.1599 37.1682 30.7568 37.1667C30.4769 37.167 30.1971 37.1674 29.9172 37.168C29.3306 37.1687 28.744 37.1677 28.1573 37.1656C27.4047 37.1629 26.6523 37.1644 25.8997 37.1672C25.3218 37.1689 24.7439 37.1683 24.166 37.1671C23.8885 37.1668 23.611 37.1672 23.3335 37.1683C22.9458 37.1695 22.5583 37.1677 22.1707 37.1651C21.9981 37.1665 21.9981 37.1665 21.822 37.1679C21.0488 37.1584 21.0488 37.1584 20.6714 36.896C20.4319 36.5189 20.4427 36.2749 20.5117 35.8379C21.0003 35.1421 21.5062 35.1797 22.2884 35.189Z" fill="black"/>
<path d="M33.1292 19.2219C33.3236 19.2191 33.3236 19.2191 33.5219 19.2163C34.1136 19.2112 34.7052 19.2064 35.2968 19.2038C35.6091 19.2023 35.9214 19.199 36.2337 19.1943C36.6836 19.1876 37.1335 19.1855 37.5835 19.1838C37.7231 19.1812 37.8627 19.1786 38.0066 19.1759C39.0846 19.1786 39.0846 19.1786 39.441 19.5103C39.7035 19.9179 39.7185 20.151 39.6406 20.627C39.385 20.962 39.2351 21.0694 38.834 21.2031C38.6373 21.2144 38.4402 21.219 38.2432 21.2199C38.1228 21.2206 38.0025 21.2213 37.8784 21.2221C37.7484 21.2222 37.6184 21.2223 37.4845 21.2225C37.2839 21.2231 37.2839 21.2231 37.0793 21.2236C36.7963 21.2242 36.5132 21.2245 36.2302 21.2245C35.7972 21.2247 35.3643 21.2268 34.9313 21.229C34.6564 21.2293 34.3816 21.2296 34.1067 21.2297C33.9771 21.2305 33.8476 21.2313 33.7141 21.2322C33.5325 21.2317 33.5325 21.2317 33.3471 21.2311C33.1879 21.2314 33.1879 21.2314 33.0254 21.2316C32.5646 21.1877 32.2479 21.0702 31.9199 20.7422C31.7912 20.3064 31.7867 20.0986 31.9487 19.6691C32.2611 19.1893 32.5949 19.2289 33.1292 19.2219Z" fill="black"/>
<path d="M23.0272 31.6672C23.143 31.6654 23.2588 31.6635 23.3781 31.6616C23.9078 31.6565 24.4376 31.6518 24.9673 31.6491C25.2469 31.6472 25.5264 31.6441 25.8059 31.6397C26.2086 31.6334 26.6112 31.6308 27.0139 31.6291C27.1388 31.6265 27.2636 31.6239 27.3923 31.6212C28.2568 31.6237 28.2568 31.6237 28.715 31.9557C28.9891 32.3625 29.0026 32.5911 28.9238 33.0723C28.6906 33.3708 28.5534 33.5149 28.1779 33.591C28.0183 33.591 28.0183 33.591 27.8554 33.591C27.6737 33.5926 27.6737 33.5926 27.4884 33.5943C27.3582 33.593 27.2281 33.5917 27.094 33.5904C26.9599 33.5905 26.8259 33.5907 26.6877 33.5909C26.4044 33.5907 26.1211 33.5894 25.8377 33.587C25.4032 33.5836 24.9689 33.5846 24.5343 33.5861C24.2592 33.5854 23.9841 33.5844 23.709 33.5832C23.5135 33.5837 23.5135 33.5837 23.314 33.5842C23.1932 33.5827 23.0725 33.5813 22.948 33.5798C22.8417 33.5791 22.7354 33.5785 22.6258 33.5779C22.3018 33.5243 22.2019 33.4502 22.0098 33.1875C21.8914 32.7309 21.8478 32.4833 22.0458 32.0496C22.3486 31.6682 22.5601 31.674 23.0272 31.6672Z" fill="black"/>
<path d="M35.543 22.748C35.6821 22.748 35.6821 22.748 35.824 22.748C36.0194 22.7486 36.2148 22.7506 36.4101 22.754C36.7088 22.7588 37.0072 22.7587 37.306 22.7579C37.4962 22.7591 37.6864 22.7606 37.8765 22.7624C37.9656 22.7624 38.0547 22.7624 38.1465 22.7625C38.6332 22.7732 38.95 22.8021 39.2949 23.1621C39.436 23.5569 39.4443 23.9543 39.3381 24.3577C39.1181 24.6177 38.9288 24.6719 38.6035 24.7754C38.0607 24.818 37.5176 24.8134 36.9733 24.8118C36.7105 24.8114 36.4479 24.8141 36.1852 24.817C36.0167 24.8173 35.8483 24.8174 35.6799 24.8173C35.5279 24.8176 35.3758 24.8179 35.2192 24.8183C34.7707 24.7723 34.4905 24.6668 34.1094 24.4297C33.9964 24.1893 33.9964 24.1893 33.9725 23.9255C33.9614 23.8391 33.9502 23.7526 33.9388 23.6636C34.1099 22.8262 34.8119 22.7324 35.543 22.748Z" fill="black"/>
<path d="M29.9609 44.9414C30.3066 45.2353 30.4051 45.4172 30.4795 45.8633C30.4051 46.3094 30.3066 46.4913 29.9609 46.7852C29.5001 46.8938 29.1565 46.8556 28.751 46.6123C28.5065 46.2049 28.487 45.8657 28.5781 45.4024C28.9 44.8659 29.382 44.805 29.9609 44.9414Z" fill="black"/>
<path d="M82.89 23H87.75V44H82.89V23ZM73.35 44H68.49V23H73.35V44ZM83.25 35.39H72.99V31.28H83.25V35.39ZM97.9385 44V35.42L99.0485 38.36L89.8085 23H94.9685L102.049 34.79H99.0785L106.189 23H110.959L101.719 38.36L102.799 35.42V44H97.9385ZM112.816 44V23H121.906C123.786 23 125.406 23.31 126.766 23.93C128.126 24.53 129.176 25.4 129.916 26.54C130.656 27.68 131.026 29.04 131.026 30.62C131.026 32.18 130.656 33.53 129.916 34.67C129.176 35.81 128.126 36.69 126.766 37.31C125.406 37.91 123.786 38.21 121.906 38.21H115.516L117.676 36.02V44H112.816ZM117.676 36.56L115.516 34.25H121.636C123.136 34.25 124.256 33.93 124.996 33.29C125.736 32.65 126.106 31.76 126.106 30.62C126.106 29.46 125.736 28.56 124.996 27.92C124.256 27.28 123.136 26.96 121.636 26.96H115.516L117.676 24.65V36.56ZM138.966 31.46H149.076V35.24H138.966V31.46ZM139.326 40.1H150.756V44H134.496V23H150.366V26.9H139.326V40.1ZM154.623 44V23H163.713C165.593 23 167.213 23.31 168.573 23.93C169.933 24.53 170.983 25.4 171.723 26.54C172.463 27.68 172.833 29.04 172.833 30.62C172.833 32.18 172.463 33.53 171.723 34.67C170.983 35.79 169.933 36.65 168.573 37.25C167.213 37.85 165.593 38.15 163.713 38.15H157.323L159.483 36.02V44H154.623ZM167.973 44L162.723 36.38H167.913L173.223 44H167.973ZM159.483 36.56L157.323 34.28H163.443C164.943 34.28 166.063 33.96 166.803 33.32C167.543 32.66 167.913 31.76 167.913 30.62C167.913 29.46 167.543 28.56 166.803 27.92C166.063 27.28 164.943 26.96 163.443 26.96H157.323L159.483 24.65V36.56ZM181.183 32.45H191.263V36.35H181.183V32.45ZM181.543 44H176.683V23H192.553V26.9H181.543V44ZM201.064 44V35.42L202.174 38.36L192.934 23H198.094L205.174 34.79H202.204L209.314 23H214.084L204.844 38.36L205.924 35.42V44H201.064Z" fill="black"/>
<path d="M69.73 56L67.37 49H68.13L70.34 55.59H69.96L72.24 49H72.92L75.17 55.59H74.81L77.04 49H77.75L75.39 56H74.61L72.46 49.75H72.66L70.5 56H69.73ZM82.1668 52.13H85.8668V52.76H82.1668V52.13ZM82.2468 55.36H86.4568V56H81.5068V49H86.3068V49.64H82.2468V55.36ZM90.5962 56V49H93.6162C94.3962 49 94.9996 49.1567 95.4262 49.47C95.8596 49.7833 96.0762 50.2267 96.0762 50.8C96.0762 51.18 95.9862 51.5 95.8062 51.76C95.6329 52.02 95.3929 52.2167 95.0862 52.35C94.7862 52.4833 94.4562 52.55 94.0962 52.55L94.2662 52.31C94.7129 52.31 95.0962 52.38 95.4162 52.52C95.7429 52.6533 95.9962 52.8567 96.1762 53.13C96.3562 53.3967 96.4462 53.73 96.4462 54.13C96.4462 54.7233 96.2262 55.1833 95.7862 55.51C95.3529 55.8367 94.6962 56 93.8162 56H90.5962ZM91.3362 55.39H93.8062C94.4196 55.39 94.8896 55.2867 95.2162 55.08C95.5429 54.8667 95.7062 54.53 95.7062 54.07C95.7062 53.6167 95.5429 53.2867 95.2162 53.08C94.8896 52.8667 94.4196 52.76 93.8062 52.76H91.2562V52.15H93.5662C94.1262 52.15 94.5596 52.0433 94.8662 51.83C95.1796 51.6167 95.3362 51.3 95.3362 50.88C95.3362 50.4533 95.1796 50.1367 94.8662 49.93C94.5596 49.7167 94.1262 49.61 93.5662 49.61H91.3362V55.39ZM105.552 56V49H108.402C109.149 49 109.802 49.15 110.362 49.45C110.929 49.7433 111.369 50.1533 111.682 50.68C111.996 51.2067 112.152 51.8133 112.152 52.5C112.152 53.1867 111.996 53.7933 111.682 54.32C111.369 54.8467 110.929 55.26 110.362 55.56C109.802 55.8533 109.149 56 108.402 56H105.552ZM106.292 55.36H108.362C108.982 55.36 109.519 55.24 109.972 55C110.432 54.7533 110.789 54.4167 111.042 53.99C111.296 53.5567 111.422 53.06 111.422 52.5C111.422 51.9333 111.296 51.4367 111.042 51.01C110.789 50.5833 110.432 50.25 109.972 50.01C109.519 49.7633 108.982 49.64 108.362 49.64H106.292V55.36ZM116.874 52.13H120.574V52.76H116.874V52.13ZM116.954 55.36H121.164V56H116.214V49H121.014V49.64H116.954V55.36ZM127.196 56L124.096 49H124.896L127.796 55.59H127.356L130.276 49H131.026L127.926 56H127.196ZM135.102 52.13H138.802V52.76H135.102V52.13ZM135.182 55.36H139.392V56H134.442V49H139.242V49.64H135.182V55.36ZM143.531 56V49H144.271V55.36H148.191V56H143.531ZM154.743 56.06C154.217 56.06 153.727 55.9733 153.273 55.8C152.827 55.62 152.437 55.37 152.103 55.05C151.777 54.7233 151.52 54.3467 151.333 53.92C151.153 53.4867 151.063 53.0133 151.063 52.5C151.063 51.9867 151.153 51.5167 151.333 51.09C151.52 50.6567 151.777 50.28 152.103 49.96C152.437 49.6333 152.827 49.3833 153.273 49.21C153.72 49.03 154.21 48.94 154.743 48.94C155.27 48.94 155.757 49.03 156.203 49.21C156.65 49.3833 157.037 49.63 157.363 49.95C157.697 50.27 157.953 50.6467 158.133 51.08C158.32 51.5133 158.413 51.9867 158.413 52.5C158.413 53.0133 158.32 53.4867 158.133 53.92C157.953 54.3533 157.697 54.73 157.363 55.05C157.037 55.37 156.65 55.62 156.203 55.8C155.757 55.9733 155.27 56.06 154.743 56.06ZM154.743 55.4C155.163 55.4 155.55 55.33 155.903 55.19C156.263 55.0433 156.573 54.84 156.833 54.58C157.1 54.3133 157.307 54.0067 157.453 53.66C157.6 53.3067 157.673 52.92 157.673 52.5C157.673 52.08 157.6 51.6967 157.453 51.35C157.307 50.9967 157.1 50.69 156.833 50.43C156.573 50.1633 156.263 49.96 155.903 49.82C155.55 49.6733 155.163 49.6 154.743 49.6C154.323 49.6 153.933 49.6733 153.573 49.82C153.213 49.96 152.9 50.1633 152.633 50.43C152.373 50.69 152.167 50.9967 152.013 51.35C151.867 51.6967 151.793 52.08 151.793 52.5C151.793 52.9133 151.867 53.2967 152.013 53.65C152.167 54.0033 152.373 54.3133 152.633 54.58C152.9 54.84 153.213 55.0433 153.573 55.19C153.933 55.33 154.323 55.4 154.743 55.4ZM162.472 56V49H165.092C165.685 49 166.195 49.0967 166.622 49.29C167.049 49.4767 167.375 49.75 167.602 50.11C167.835 50.4633 167.952 50.8933 167.952 51.4C167.952 51.8933 167.835 52.32 167.602 52.68C167.375 53.0333 167.049 53.3067 166.622 53.5C166.195 53.6933 165.685 53.79 165.092 53.79H162.882L163.212 53.44V56H162.472ZM163.212 53.5L162.882 53.14H165.072C165.772 53.14 166.302 52.99 166.662 52.69C167.029 52.3833 167.212 51.9533 167.212 51.4C167.212 50.84 167.029 50.4067 166.662 50.1C166.302 49.7933 165.772 49.64 165.072 49.64H162.882L163.212 49.29V53.5ZM171.952 56V49H172.562L175.762 54.46H175.442L178.612 49H179.222V56H178.512V50.11H178.682L175.762 55.11H175.412L172.472 50.11H172.662V56H171.952ZM184.563 52.13H188.263V52.76H184.563V52.13ZM184.643 55.36H188.853V56H183.903V49H188.703V49.64H184.643V55.36ZM192.992 56V49H193.602L198.432 55.08H198.112V49H198.842V56H198.232L193.412 49.92H193.732V56H192.992ZM204.887 56V49.64H202.427V49H208.087V49.64H205.627V56H204.887Z" fill="black"/>
</svg>
