<?xml version="1.0" encoding="UTF-8"?>
<!DOCTYPE svg PUBLIC "-//W3C//DTD SVG 1.1//EN" "http://www.w3.org/Graphics/SVG/1.1/DTD/svg11.dtd">
<svg xmlns="http://www.w3.org/2000/svg" version="1.1" width="389px" height="338px" style="shape-rendering:geometricPrecision; text-rendering:geometricPrecision; image-rendering:optimizeQuality; fill-rule:evenodd; clip-rule:evenodd" xmlns:xlink="http://www.w3.org/1999/xlink">
<g><path style="opacity:0.373" fill="#3d4b5d" d="M 116.5,37.5 C 116.5,39.8333 116.5,42.1667 116.5,44.5C 115.522,44.189 114.855,43.5223 114.5,42.5C 115.028,40.6639 115.694,38.9972 116.5,37.5 Z"/></g>
<g><path style="opacity:1" fill="#dbe2e7" d="M 156.5,52.5 C 155.244,54.7257 155.244,57.059 156.5,59.5C 150.838,54.6767 145.004,50.01 139,45.5C 136.815,47.3531 134.982,49.5197 133.5,52C 147.356,63.0308 161.022,74.1975 174.5,85.5C 172.173,85.7529 170.173,85.0863 168.5,83.5C 167.478,83.8555 166.811,84.5222 166.5,85.5C 154.775,77.2873 143.441,68.454 132.5,59C 123.07,56.6851 118.07,60.1851 117.5,69.5C 116.776,66.9174 115.943,64.2507 115,61.5C 114.23,60.4019 113.397,60.4019 112.5,61.5C 112.933,58.8045 114.266,56.6379 116.5,55C 118.492,54.4257 119.992,53.259 121,51.5C 121.718,52.4506 122.551,52.6172 123.5,52C 120.261,50.2636 117.927,47.7636 116.5,44.5C 116.5,42.1667 116.5,39.8333 116.5,37.5C 118.938,31.1109 123.605,28.6109 130.5,30C 139.799,36.8089 148.465,44.3089 156.5,52.5 Z M 126.5,35.5 C 129.838,36.3345 132.504,38.1679 134.5,41C 132.312,43.1884 130.145,45.3551 128,47.5C 121.461,43.9764 120.961,39.9764 126.5,35.5 Z"/></g>
<g><path style="opacity:1" fill="#f8fcfc" d="M 156.5,52.5 C 156.833,52.5 157.167,52.5 157.5,52.5C 192.998,53.3325 228.664,53.8325 264.5,54C 267.159,55.8661 266.826,57.0328 263.5,57.5C 230.16,57.1668 196.827,57.5001 163.5,58.5C 163.624,59.1067 163.957,59.44 164.5,59.5C 166.5,61.1667 168.5,62.8333 170.5,64.5C 171.038,66.1172 171.371,67.7839 171.5,69.5C 170.167,69.5 168.833,69.5 167.5,69.5C 163.209,66.8769 159.543,63.5436 156.5,59.5C 155.244,57.059 155.244,54.7257 156.5,52.5 Z"/></g>
<g><path style="opacity:1" fill="#fcfefe" d="M 274.5,157.5 C 273.05,156.342 272.05,156.842 271.5,159C 270.833,159.667 270.167,159.667 269.5,159C 270.817,156.063 270.817,153.23 269.5,150.5C 268.048,149.698 266.382,149.198 264.5,149C 265.171,148.014 265.171,146.847 264.5,145.5C 266.167,145.5 267.833,145.5 269.5,145.5C 270.167,131.671 270.5,117.671 270.5,103.5C 270.499,89.1504 269.833,75.1504 268.5,61.5C 268.542,59.8543 268.542,58.1877 268.5,56.5C 270.557,58.269 272.39,60.269 274,62.5C 274.5,94.1649 274.667,125.832 274.5,157.5 Z"/></g>
<g><path style="opacity:0.733" fill="#9dacbe" d="M 263.5,57.5 C 263.5,57.8333 263.5,58.1667 263.5,58.5C 229.598,58.8204 196.598,59.1537 164.5,59.5C 163.957,59.44 163.624,59.1067 163.5,58.5C 196.827,57.5001 230.16,57.1668 263.5,57.5 Z"/></g>
<g><path style="opacity:1" fill="#f4f8fa" d="M 117.5,69.5 C 118.518,81.2884 118.518,93.2884 117.5,105.5C 117.5,118.833 117.5,132.167 117.5,145.5C 166.5,145.5 215.5,145.5 264.5,145.5C 265.171,146.847 265.171,148.014 264.5,149C 266.382,149.198 268.048,149.698 269.5,150.5C 219.167,150.5 168.833,150.5 118.5,150.5C 118.107,153.513 118.774,156.18 120.5,158.5C 118.905,159.362 117.238,159.862 115.5,160C 115.05,157.467 114.05,155.3 112.5,153.5C 112.5,123.167 112.5,92.8333 112.5,62.5C 112.5,62.1667 112.5,61.8333 112.5,61.5C 113.397,60.4019 114.23,60.4019 115,61.5C 115.943,64.2507 116.776,66.9174 117.5,69.5 Z"/></g>
<g><path style="opacity:0.352" fill="#607189" d="M 258.5,71.5 C 249.167,71.5 239.833,71.5 230.5,71.5C 231.172,70.7326 232.005,70.0659 233,69.5C 241.598,70.1535 250.098,70.8202 258.5,71.5 Z"/></g>
<g><path style="opacity:0.881" fill="#c2ccdb" d="M 157.5,52.5 C 193.835,52.3333 230.168,52.5 266.5,53C 270.693,54.5259 273.526,57.3592 275,61.5C 275.831,93.6693 275.664,125.669 274.5,157.5C 274.667,125.832 274.5,94.1649 274,62.5C 272.39,60.269 270.557,58.269 268.5,56.5C 268.542,58.1877 268.542,59.8543 268.5,61.5C 266.999,60.2485 265.332,59.2485 263.5,58.5C 263.5,58.1667 263.5,57.8333 263.5,57.5C 266.826,57.0328 267.159,55.8661 264.5,54C 228.664,53.8325 192.998,53.3325 157.5,52.5 Z"/></g>
<g><path style="opacity:0.999" fill="#e8eef1" d="M 230.5,71.5 C 239.833,71.5 249.167,71.5 258.5,71.5C 258.833,71.5 259.167,71.5 259.5,71.5C 259.5,81.5 259.5,91.5 259.5,101.5C 249.911,102.639 240.244,102.806 230.5,102C 230,101.5 229.5,101 229,100.5C 228.333,91.1667 228.333,81.8333 229,72.5C 229.383,71.944 229.883,71.6107 230.5,71.5 Z M 254.5,77.5 C 254.458,83.4398 254.458,89.4398 254.5,95.5C 248.167,95.5 241.833,95.5 235.5,95.5C 235.5,89.5 235.5,83.5 235.5,77.5C 241.833,77.5 248.167,77.5 254.5,77.5 Z"/></g>
<g><path style="opacity:0.514" fill="#8695a6" d="M 112.5,62.5 C 112.5,92.8333 112.5,123.167 112.5,153.5C 112.5,154.5 112.5,155.5 112.5,156.5C 111.711,156.217 111.044,155.717 110.5,155C 111.163,124.069 111.83,93.2356 112.5,62.5 Z"/></g>
<g><path style="opacity:0.114" fill="#32455b" d="M 254.5,77.5 C 248.167,77.5 241.833,77.5 235.5,77.5C 235.5,83.5 235.5,89.5 235.5,95.5C 241.833,95.5 248.167,95.5 254.5,95.5C 248.021,96.4907 241.354,96.824 234.5,96.5C 234.5,89.8333 234.5,83.1667 234.5,76.5C 241.354,76.176 248.021,76.5093 254.5,77.5 Z"/></g>
<g><path style="opacity:0.62" fill="#8898af" d="M 259.5,71.5 C 260.194,79.7043 260.861,88.0377 261.5,96.5C 260.972,98.3361 260.306,100.003 259.5,101.5C 259.5,91.5 259.5,81.5 259.5,71.5 Z"/></g>
<g><path style="opacity:1" fill="#dde6ea" d="M 210.5,77.5 C 213.85,77.335 217.183,77.5017 220.5,78C 223.699,79.679 224.033,81.679 221.5,84C 214.833,84.6667 208.167,84.6667 201.5,84C 199.475,82.806 199.141,81.306 200.5,79.5C 203.977,78.8328 207.311,78.1661 210.5,77.5 Z"/></g>
<g><path style="opacity:1" fill="#e0e6ea" d="M 170.5,64.5 C 175.468,68.9926 180.468,73.4926 185.5,78C 190.559,78.4755 194.726,80.6421 198,84.5C 202.106,92.1714 204.939,100.005 206.5,108C 198.35,110.053 190.683,108.72 183.5,104C 178.39,97.244 172.723,91.0773 166.5,85.5C 166.811,84.5222 167.478,83.8555 168.5,83.5C 170.173,85.0863 172.173,85.7529 174.5,85.5C 176.296,84.2073 177.963,82.7073 179.5,81C 175.605,76.9353 171.605,73.102 167.5,69.5C 168.833,69.5 170.167,69.5 171.5,69.5C 171.371,67.7839 171.038,66.1172 170.5,64.5 Z M 183.5,85.5 C 187.594,84.7046 190.761,86.038 193,89.5C 194.837,93.6838 196.671,97.8505 198.5,102C 189.985,102.311 184.318,98.4772 181.5,90.5C 181.437,88.4861 182.103,86.8194 183.5,85.5 Z"/></g>
<g><path style="opacity:0.071" fill="#18184b" d="M 208.5,88.5 C 207.833,88.8333 207.167,89.1667 206.5,89.5C 205.262,89.19 205.262,88.69 206.5,88C 207.437,87.3083 208.103,87.475 208.5,88.5 Z"/></g>
<g><path style="opacity:1" fill="#ecf3f8" d="M 208.5,88.5 C 212.5,88.5 216.5,88.5 220.5,88.5C 221.301,90.0418 221.634,91.7085 221.5,93.5C 217.019,94.6484 212.352,94.8151 207.5,94C 205.218,92.9158 204.884,91.4158 206.5,89.5C 207.167,89.1667 207.833,88.8333 208.5,88.5 Z"/></g>
<g><path style="opacity:0.314" fill="#3d4e5f" d="M 220.5,88.5 C 221.649,88.7911 222.316,89.6244 222.5,91C 222.472,92.0698 222.139,92.9032 221.5,93.5C 221.634,91.7085 221.301,90.0418 220.5,88.5 Z"/></g>
<g><path style="opacity:0.998" fill="#bcc9d3" d="M 155.5,95.5 C 163.03,100.583 165.53,107.583 163,116.5C 162.576,119.025 161.41,121.025 159.5,122.5C 160.936,117.964 161.936,113.297 162.5,108.5C 161.774,106.124 160.441,104.124 158.5,102.5C 158.168,103.789 157.834,105.455 157.5,107.5C 156.18,105.537 154.846,103.537 153.5,101.5C 155.288,101.785 156.955,101.452 158.5,100.5C 156.722,99.2742 155.722,97.6075 155.5,95.5 Z"/></g>
<g><path style="opacity:1" fill="#dae1e7" d="M 155.5,95.5 C 155.722,97.6075 156.722,99.2742 158.5,100.5C 156.955,101.452 155.288,101.785 153.5,101.5C 148.021,97.6929 142.355,97.5263 136.5,101C 130.646,108.646 131.313,115.646 138.5,122C 151.01,125.327 157.344,120.494 157.5,107.5C 157.834,105.455 158.168,103.789 158.5,102.5C 160.441,104.124 161.774,106.124 162.5,108.5C 161.936,113.297 160.936,117.964 159.5,122.5C 157.628,125.529 154.961,127.695 151.5,129C 130.671,130.817 122.837,121.65 128,101.5C 131.835,95.5129 137.335,92.1795 144.5,91.5C 148.64,91.8453 152.306,93.1786 155.5,95.5 Z"/></g>
<g><path style="opacity:1" fill="#e2e9ee" d="M 172.5,118.5 C 172.5,117.167 172.5,115.833 172.5,114.5C 178.653,113.347 184.986,113.18 191.5,114C 192.833,115.667 192.833,117.333 191.5,119C 184.986,119.82 178.653,119.653 172.5,118.5 Z"/></g>
<g><path style="opacity:1" fill="#dce3e8" d="M 247.5,114.5 C 257.988,113.487 262.488,118.154 261,128.5C 254.256,136.767 247.922,136.434 242,127.5C 240.841,121.79 242.674,117.456 247.5,114.5 Z M 249.5,120.5 C 254.975,120.44 256.309,122.606 253.5,127C 248.177,127.18 246.843,125.014 249.5,120.5 Z"/></g>
<g><path style="opacity:0.188" fill="#3c505f" d="M 172.5,114.5 C 172.5,115.833 172.5,117.167 172.5,118.5C 170.219,116.968 170.219,115.634 172.5,114.5 Z"/></g>
<g><path style="opacity:1" fill="#dce2e8" d="M 220.5,114.5 C 228.533,113.053 233.533,116.22 235.5,124C 234.286,131.561 229.953,134.894 222.5,134C 214.689,130.567 212.855,125.067 217,117.5C 218.145,116.364 219.312,115.364 220.5,114.5 Z M 223.5,120.5 C 226.352,120.352 228.019,121.686 228.5,124.5C 226.167,129.833 223.833,129.833 221.5,124.5C 221.752,122.927 222.418,121.594 223.5,120.5 Z"/></g>
<g><path style="opacity:0.618" fill="#a0aebd" d="M 169.5,124.5 C 181.326,123.34 193.326,123.174 205.5,124C 207.983,125.855 207.983,127.689 205.5,129.5C 205.141,127.629 204.141,126.129 202.5,125C 191.505,124.5 180.505,124.333 169.5,124.5 Z"/></g>
<g><path style="opacity:1" fill="#f9fcfd" d="M 169.5,124.5 C 180.505,124.333 191.505,124.5 202.5,125C 204.141,126.129 205.141,127.629 205.5,129.5C 193.162,129.667 180.829,129.5 168.5,129C 167.084,127.085 167.418,125.585 169.5,124.5 Z"/></g>
<g><path style="opacity:0.743" fill="#a8b2c4" d="M 268.5,61.5 C 269.833,75.1504 270.499,89.1504 270.5,103.5C 270.5,117.671 270.167,131.671 269.5,145.5C 269.5,145.167 269.5,144.833 269.5,144.5C 269.656,116.91 269.323,89.2428 268.5,61.5 Z"/></g>
<g><path style="opacity:0.351" fill="#556982" d="M 117.5,105.5 C 118.495,118.323 118.829,131.323 118.5,144.5C 167.825,144.387 218.158,144.387 269.5,144.5C 269.5,144.833 269.5,145.167 269.5,145.5C 267.833,145.5 266.167,145.5 264.5,145.5C 215.5,145.5 166.5,145.5 117.5,145.5C 117.5,132.167 117.5,118.833 117.5,105.5 Z"/></g>
<g><path style="opacity:0.998" fill="#e5eef2" d="M 196.5,156.5 C 194.833,156.5 193.167,156.5 191.5,156.5C 191.5,155.167 191.5,153.833 191.5,152.5C 192.919,151.549 194.585,151.216 196.5,151.5C 196.5,153.167 196.5,154.833 196.5,156.5 Z"/></g>
<g><path style="opacity:0.541" fill="#4c5a79" d="M 191.5,152.5 C 191.5,153.833 191.5,155.167 191.5,156.5C 193.167,156.5 194.833,156.5 196.5,156.5C 193.54,159.191 191.206,158.524 189.5,154.5C 189.855,153.478 190.522,152.811 191.5,152.5 Z"/></g>
<g><path style="opacity:1" fill="#dee4e8" d="M 269.5,150.5 C 270.817,153.23 270.817,156.063 269.5,159C 270.167,159.667 270.833,159.667 271.5,159C 272.05,156.842 273.05,156.342 274.5,157.5C 273.313,162.186 270.313,165.019 265.5,166C 246.5,166.333 227.5,166.667 208.5,167C 206.956,171.38 207.289,175.546 209.5,179.5C 214.305,180.487 219.305,180.821 224.5,180.5C 226.077,182.994 225.41,184.827 222.5,186C 202.996,186.829 183.662,186.662 164.5,185.5C 164.751,183.83 165.418,182.33 166.5,181C 170.356,180.823 174.023,180.323 177.5,179.5C 180.084,178.952 181.084,177.285 180.5,174.5C 180.5,173.5 180.5,172.5 180.5,171.5C 180.737,170.209 180.404,169.209 179.5,168.5C 179.389,167.883 179.056,167.383 178.5,167C 159.5,166.667 140.5,166.333 121.5,166C 116.235,164.904 113.235,161.737 112.5,156.5C 112.5,155.5 112.5,154.5 112.5,153.5C 114.05,155.3 115.05,157.467 115.5,160C 117.238,159.862 118.905,159.362 120.5,158.5C 121.167,158.833 121.833,159.167 122.5,159.5C 145.49,160.833 168.824,161.5 192.5,161.5C 216.002,161.5 239.336,161.167 262.5,160.5C 267.783,159.276 270.116,155.943 269.5,150.5 Z M 200.5,167.5 C 200.185,171.371 200.518,175.038 201.5,178.5C 196.6,179.8 191.6,179.8 186.5,178.5C 186.672,177.508 186.338,176.842 185.5,176.5C 186.833,174.167 186.833,171.833 185.5,169.5C 186.598,168.603 186.598,167.77 185.5,167C 190.584,166.222 195.584,166.389 200.5,167.5 Z"/></g>
<g><path style="opacity:0.867" fill="#d5e3f5" d="M 122.5,159.5 C 169.124,160.49 215.791,160.823 262.5,160.5C 239.336,161.167 216.002,161.5 192.5,161.5C 168.824,161.5 145.49,160.833 122.5,159.5 Z"/></g>
<g><path style="opacity:0.22" fill="#52657a" d="M 201.5,166.5 C 200.833,166.5 200.5,166.833 200.5,167.5C 195.584,166.389 190.584,166.222 185.5,167C 186.598,167.77 186.598,168.603 185.5,169.5C 184.566,168.432 184.232,167.099 184.5,165.5C 190.358,165.178 196.025,165.511 201.5,166.5 Z"/></g>
<g><path style="opacity:0.49" fill="#485561" d="M 179.5,168.5 C 180.404,169.209 180.737,170.209 180.5,171.5C 179.733,170.828 179.066,169.995 178.5,169C 178.728,168.601 179.062,168.435 179.5,168.5 Z"/></g>
<g><path style="opacity:0.686" fill="#6b788a" d="M 180.5,174.5 C 181.084,177.285 180.084,178.952 177.5,179.5C 178.263,177.632 179.263,175.965 180.5,174.5 Z"/></g>
<g><path style="opacity:0.351" fill="#687283" d="M 185.5,176.5 C 186.338,176.842 186.672,177.508 186.5,178.5C 191.6,179.8 196.6,179.8 201.5,178.5C 202.043,178.56 202.376,178.893 202.5,179.5C 196.537,180.496 190.537,180.829 184.5,180.5C 184.433,179.041 184.766,177.708 185.5,176.5 Z"/></g>
<g><path style="opacity:0.616" fill="#797f93" d="M 224.5,180.5 C 219.305,180.821 214.305,180.487 209.5,179.5C 214.654,178.607 219.654,178.94 224.5,180.5 Z"/></g>
<g><path style="opacity:0.999" fill="#b4c1cd" d="M 177.5,179.5 C 174.023,180.323 170.356,180.823 166.5,181C 165.418,182.33 164.751,183.83 164.5,185.5C 161.508,184.868 160.841,183.201 162.5,180.5C 167.456,179.506 172.456,179.173 177.5,179.5 Z"/></g>
<g><path style="opacity:1" fill="#f1f2f5" d="M 73.5,219.5 C 76.8333,219.5 80.1667,219.5 83.5,219.5C 84.2459,231.348 84.2459,243.015 83.5,254.5C 83.5,257.167 83.5,259.833 83.5,262.5C 80.1667,262.5 76.8333,262.5 73.5,262.5C 73.5,256.833 73.5,251.167 73.5,245.5C 66.9881,244.833 60.3214,244.167 53.5,243.5C 53.9202,241.674 53.9202,239.674 53.5,237.5C 60.1667,237.5 66.8333,237.5 73.5,237.5C 73.5,231.5 73.5,225.5 73.5,219.5 Z"/></g>
<g><path style="opacity:0.02" fill="#121c2f" d="M 87.5,219.5 C 87.8333,220.167 88.1667,220.833 88.5,221.5C 87.5,221.5 86.5,221.5 85.5,221.5C 85.281,220.325 85.6143,219.325 86.5,218.5C 87.1067,218.624 87.44,218.957 87.5,219.5 Z"/></g>
<g><path style="opacity:1" fill="#eaeef2" d="M 87.5,219.5 C 91.5546,219.176 95.5546,219.509 99.5,220.5C 102.179,225.194 104.845,229.861 107.5,234.5C 107.427,236.027 108.094,237.027 109.5,237.5C 113.392,232.068 117.058,226.402 120.5,220.5C 124.167,219.167 127.833,219.167 131.5,220.5C 126,229.5 120.5,238.5 115,247.5C 114.667,252.833 114.333,258.167 114,263.5C 113.586,263.957 113.086,264.291 112.5,264.5C 109.966,263.212 107.466,263.212 105,264.5C 104.5,264 104,263.5 103.5,263C 104.637,257.918 104.804,252.751 104,247.5C 98.5702,238.971 93.4035,230.304 88.5,221.5C 88.1667,220.833 87.8333,220.167 87.5,219.5 Z"/></g>
<g><path style="opacity:1" fill="#f1f4f6" d="M 135.5,219.5 C 144.173,219.334 152.84,219.5 161.5,220C 172.1,224.118 175.6,231.618 172,242.5C 169.566,247.291 165.733,249.958 160.5,250.5C 155.305,250.179 150.305,250.513 145.5,251.5C 145.984,254.716 145.984,258.049 145.5,261.5C 142.375,262.479 139.042,262.813 135.5,262.5C 135.5,248.167 135.5,233.833 135.5,219.5 Z M 145.5,228.5 C 149.477,228.629 153.143,228.629 156.5,228.5C 160.882,229.928 162.715,232.928 162,237.5C 159.787,241.689 156.287,243.356 151.5,242.5C 149.5,242.333 147.5,242.167 145.5,242C 145.541,237.501 145.541,233.001 145.5,228.5 Z"/></g>
<g><path style="opacity:1" fill="#eef2f4" d="M 180.5,219.5 C 191.5,219.5 202.5,219.5 213.5,219.5C 213.5,222.5 213.5,225.5 213.5,228.5C 205.833,228.5 198.167,228.5 190.5,228.5C 190.5,231.167 190.5,233.833 190.5,236.5C 197.167,236.5 203.833,236.5 210.5,236.5C 210.223,239.448 210.556,242.281 211.5,245C 204.508,245.5 197.508,245.666 190.5,245.5C 190.5,248.5 190.5,251.5 190.5,254.5C 197.982,255.492 205.648,255.825 213.5,255.5C 213.5,257.833 213.5,260.167 213.5,262.5C 202.5,262.5 191.5,262.5 180.5,262.5C 180.5,248.167 180.5,233.833 180.5,219.5 Z"/></g>
<g><path style="opacity:1" fill="#f3f6f7" d="M 222.5,219.5 C 230.84,219.334 239.173,219.5 247.5,220C 255.611,221.948 259.944,227.115 260.5,235.5C 259.895,241.887 256.895,246.721 251.5,250C 254.474,253.128 256.807,256.628 258.5,260.5C 255.663,262.402 252.329,263.069 248.5,262.5C 246.807,259.816 245.14,257.149 243.5,254.5C 242.829,253.153 242.829,251.986 243.5,251C 239.642,250.19 235.976,250.357 232.5,251.5C 231.518,254.962 231.185,258.629 231.5,262.5C 228.5,262.5 225.5,262.5 222.5,262.5C 222.5,248.167 222.5,233.833 222.5,219.5 Z M 243.5,228.5 C 248.109,230.725 249.609,234.391 248,239.5C 246.729,240.883 245.229,241.883 243.5,242.5C 239.833,242.5 236.167,242.5 232.5,242.5C 232.5,237.833 232.5,233.167 232.5,228.5C 236.167,228.5 239.833,228.5 243.5,228.5 Z"/></g>
<g><path style="opacity:1" fill="#f8fafb" d="M 300.5,220.5 C 301.686,222.874 301.686,225.208 300.5,227.5C 292.833,227.5 285.167,227.5 277.5,227.5C 277.5,231.5 277.5,235.5 277.5,239.5C 284.167,239.5 290.833,239.5 297.5,239.5C 297.5,242.167 297.5,244.833 297.5,247.5C 291.475,247.571 285.142,247.571 278.5,247.5C 277.513,252.305 277.179,257.305 277.5,262.5C 274.5,262.5 271.5,262.5 268.5,262.5C 268.5,248.5 268.5,234.5 268.5,220.5C 279.167,220.5 289.833,220.5 300.5,220.5 Z"/></g>
<g><path style="opacity:1" fill="#eceff2" d="M 73.5,219.5 C 73.5,225.5 73.5,231.5 73.5,237.5C 66.8333,237.5 60.1667,237.5 53.5,237.5C 53.9202,239.674 53.9202,241.674 53.5,243.5C 60.3214,244.167 66.9881,244.833 73.5,245.5C 73.1667,245.5 72.8333,245.5 72.5,245.5C 66.3133,245.321 59.98,245.654 53.5,246.5C 53.6414,250.985 53.6414,255.652 53.5,260.5C 53.5,261.5 53.5,262.5 53.5,263.5C 52.5,263.5 51.5,263.5 50.5,263.5C 48.3888,264.38 46.3888,264.38 44.5,263.5C 43.504,249.01 43.1707,234.343 43.5,219.5C 46.8333,219.5 50.1667,219.5 53.5,219.5C 53.3736,225.303 53.7069,230.803 54.5,236C 60.4908,236.499 66.4908,236.666 72.5,236.5C 72.1668,230.07 72.5002,224.403 73.5,219.5 Z"/></g>
<g><path style="opacity:1" fill="#ebeff2" d="M 328.5,262.5 C 325.167,262.5 321.833,262.5 318.5,262.5C 318.821,257.305 318.487,252.305 317.5,247.5C 311.926,238.693 306.593,229.693 301.5,220.5C 305.122,219.341 308.789,219.175 312.5,220C 316.209,225.919 320.042,231.752 324,237.5C 327.123,231.418 330.623,225.585 334.5,220C 338.167,219.333 341.833,219.333 345.5,220C 340.13,229.24 334.63,238.407 329,247.5C 328.501,252.489 328.334,257.489 328.5,262.5 Z"/></g>
<g><path style="opacity:0.376" fill="#5a6d7f" d="M 145.5,228.5 C 149.167,227.167 152.833,227.167 156.5,228.5C 153.143,228.629 149.477,228.629 145.5,228.5 Z"/></g>
<g><path style="opacity:0.476" fill="#7b8da5" d="M 243.5,228.5 C 239.833,228.5 236.167,228.5 232.5,228.5C 232.5,233.167 232.5,237.833 232.5,242.5C 236.167,242.5 239.833,242.5 243.5,242.5C 239.702,243.483 235.702,243.817 231.5,243.5C 231.5,238.167 231.5,232.833 231.5,227.5C 235.702,227.183 239.702,227.517 243.5,228.5 Z"/></g>
<g><path style="opacity:0.13" fill="#263a57" d="M 43.5,219.5 C 43.1707,234.343 43.504,249.01 44.5,263.5C 44.44,264.043 44.1067,264.376 43.5,264.5C 42.8182,249.467 42.1515,234.467 41.5,219.5C 42.2565,218.227 42.9232,218.227 43.5,219.5 Z"/></g>
<g><path style="opacity:0.224" fill="#455059" d="M 107.5,234.5 C 108.906,234.973 109.573,235.973 109.5,237.5C 108.094,237.027 107.427,236.027 107.5,234.5 Z"/></g>
<g><path style="opacity:0.225" fill="#46596f" d="M 135.5,219.5 C 135.5,233.833 135.5,248.167 135.5,262.5C 139.042,262.813 142.375,262.479 145.5,261.5C 146.404,262.209 146.737,263.209 146.5,264.5C 142.583,263.664 138.75,263.664 135,264.5C 135.13,249.33 134.296,234.33 132.5,219.5C 133.425,218.438 134.425,218.438 135.5,219.5 Z"/></g>
<g><path style="opacity:0.215" fill="#445b73" d="M 300.5,227.5 C 293.352,228.492 286.019,228.825 278.5,228.5C 278.5,231.833 278.5,235.167 278.5,238.5C 285.167,238.5 291.833,238.5 298.5,238.5C 298.81,241.713 298.477,244.713 297.5,247.5C 297.5,244.833 297.5,242.167 297.5,239.5C 290.833,239.5 284.167,239.5 277.5,239.5C 277.5,235.5 277.5,231.5 277.5,227.5C 285.167,227.5 292.833,227.5 300.5,227.5 Z"/></g>
<g><path style="opacity:0.878" fill="#b6c0d1" d="M 300.5,220.5 C 289.833,220.5 279.167,220.5 268.5,220.5C 268.5,234.5 268.5,248.5 268.5,262.5C 271.5,262.5 274.5,262.5 277.5,262.5C 277.179,257.305 277.513,252.305 278.5,247.5C 278.666,252.844 278.499,258.177 278,263.5C 277.667,263.833 277.333,264.167 277,264.5C 273.589,263.707 270.089,263.207 266.5,263C 267.49,248.579 267.824,234.079 267.5,219.5C 278.679,219.172 289.679,219.505 300.5,220.5 Z"/></g>
<g><path style="opacity:0.244" fill="#44576c" d="M 180.5,219.5 C 180.5,233.833 180.5,248.167 180.5,262.5C 180.5,262.833 180.5,263.167 180.5,263.5C 179.826,249.098 179.159,234.598 178.5,220C 179.094,219.536 179.761,219.369 180.5,219.5 Z"/></g>
<g><path style="opacity:0.338" fill="#6e7f96" d="M 317.5,247.5 C 318.487,252.305 318.821,257.305 318.5,262.5C 321.833,262.5 325.167,262.5 328.5,262.5C 329.547,263.078 329.38,263.744 328,264.5C 324.606,263.544 321.106,263.211 317.5,263.5C 317.5,258.167 317.5,252.833 317.5,247.5 Z"/></g>
<g><path style="opacity:0.245" fill="#404562" d="M 72.5,245.5 C 72.8333,245.5 73.1667,245.5 73.5,245.5C 73.5,251.167 73.5,256.833 73.5,262.5C 76.8333,262.5 80.1667,262.5 83.5,262.5C 83.5,259.833 83.5,257.167 83.5,254.5C 84.4794,257.625 84.8128,260.958 84.5,264.5C 80.7032,263.421 77.0365,263.421 73.5,264.5C 72.7918,258.813 72.1251,253.146 71.5,247.5C 71.8627,246.817 72.1961,246.15 72.5,245.5 Z"/></g>
<g><path style="opacity:0.624" fill="#767d96" d="M 145.5,251.5 C 150.305,250.513 155.305,250.179 160.5,250.5C 159.003,251.306 157.336,251.972 155.5,252.5C 151.872,252.718 148.539,252.385 145.5,251.5 Z"/></g>
<g><path style="opacity:1" fill="#8d97a7" d="M 232.5,251.5 C 235.976,250.357 239.642,250.19 243.5,251C 242.829,251.986 242.829,253.153 243.5,254.5C 242.288,253.77 241.288,252.77 240.5,251.5C 237.676,251.853 235.009,251.853 232.5,251.5 Z"/></g>
<g><path style="opacity:0.008" fill="#131454" d="M 53.5,260.5 C 54.4345,261.568 54.7678,262.901 54.5,264.5C 52.901,264.768 51.5676,264.434 50.5,263.5C 51.5,263.5 52.5,263.5 53.5,263.5C 53.5,262.5 53.5,261.5 53.5,260.5 Z"/></g>
<g><path style="opacity:0.624" fill="#768898" d="M 190.5,254.5 C 198.5,254.5 206.5,254.5 214.5,254.5C 214.905,258.048 214.405,261.381 213,264.5C 202.305,264.546 191.472,264.212 180.5,263.5C 180.5,263.167 180.5,262.833 180.5,262.5C 191.5,262.5 202.5,262.5 213.5,262.5C 213.5,260.167 213.5,257.833 213.5,255.5C 205.648,255.825 197.982,255.492 190.5,254.5 Z"/></g>
<g><path style="opacity:0.62" fill="#929fb3" d="M 222.5,219.5 C 222.5,233.833 222.5,248.167 222.5,262.5C 225.5,262.5 228.5,262.5 231.5,262.5C 231.185,258.629 231.518,254.962 232.5,251.5C 232.666,255.846 232.499,260.179 232,264.5C 228.21,263.864 224.377,263.197 220.5,262.5C 221.15,255.547 221.483,248.547 221.5,241.5C 221.463,234.332 220.796,227.332 219.5,220.5C 220.394,220.483 221.394,220.149 222.5,219.5 Z"/></g>
<g><path style="opacity:0.624" fill="#8795ad" d="M 258.5,260.5 C 261.045,261.438 261.545,262.771 260,264.5C 256.065,263.862 252.231,263.196 248.5,262.5C 252.329,263.069 255.663,262.402 258.5,260.5 Z"/></g>
<g><path style="opacity:0.616" fill="#9fb5c8" d="M 221.5,288.5 C 221.347,277.818 226.18,274.818 236,279.5C 239.534,288.293 236.701,292.793 227.5,293C 224.746,292.401 222.746,290.901 221.5,288.5 Z M 226.5,279.5 C 231.658,278.331 234.658,280.331 235.5,285.5C 233.265,290.792 229.765,291.792 225,288.5C 223.058,285.141 223.558,282.141 226.5,279.5 Z"/></g>
<g><path style="opacity:0.875" fill="#8ea7bd" d="M 331.5,277.5 C 335.884,277.174 340.217,277.508 344.5,278.5C 342.955,279.452 341.288,279.785 339.5,279.5C 339.937,284.361 339.437,289.028 338,293.5C 336.563,289.028 336.063,284.361 336.5,279.5C 334.219,279.923 332.552,279.256 331.5,277.5 Z"/></g>
<g><path style="opacity:0.929" fill="#97abbf" d="M 98.5,277.5 C 101.833,276.833 103.833,278.167 104.5,281.5C 104.058,282.739 103.391,283.739 102.5,284.5C 102.5,283.833 102.167,283.5 101.5,283.5C 101.67,282.178 101.337,281.011 100.5,280C 98.5273,279.505 96.5273,279.338 94.5,279.5C 94.1667,279.5 93.8333,279.5 93.5,279.5C 95.1667,278.833 96.8333,278.167 98.5,277.5 Z"/></g>
<g><path style="opacity:0.486" fill="#607284" d="M 156.5,277.5 C 157.043,277.56 157.376,277.893 157.5,278.5C 155.577,279.308 153.577,279.808 151.5,280C 152.654,280.914 152.487,281.747 151,282.5C 150.764,280.881 149.931,279.881 148.5,279.5C 151.167,278.833 153.833,278.167 156.5,277.5 Z"/></g>
<g><path style="opacity:0.993" fill="#bfd2da" d="M 215.5,292.5 C 211.671,293.069 208.337,292.402 205.5,290.5C 206.167,273.167 206.833,273.167 207.5,290.5C 210.698,289.964 213.365,290.631 215.5,292.5 Z"/></g>
<g><path style="opacity:0.339" fill="#556c88" d="M 246.5,277.5 C 246.5,277.833 246.5,278.167 246.5,278.5C 246.334,283.179 246.501,287.845 247,292.5C 247.494,290.866 247.66,289.199 247.5,287.5C 249.833,287.5 252.167,287.5 254.5,287.5C 252.735,288.461 250.735,288.795 248.5,288.5C 248.5,290.167 248.5,291.833 248.5,293.5C 247.5,293.5 246.5,293.5 245.5,293.5C 245.179,287.974 245.512,282.64 246.5,277.5 Z"/></g>
<g><path style="opacity:0.473" fill="#657a90" d="M 124.5,277.5 C 124.5,282.5 124.5,287.5 124.5,292.5C 126.833,292.5 129.167,292.5 131.5,292.5C 129.052,293.473 126.385,293.806 123.5,293.5C 123.179,287.974 123.512,282.64 124.5,277.5 Z"/></g>
<g><path style="opacity:0.996" fill="#a1b4c3" d="M 156.5,277.5 C 153.833,278.167 151.167,278.833 148.5,279.5C 148.5,280.833 148.5,282.167 148.5,283.5C 150.857,283.337 153.19,283.503 155.5,284C 156.056,284.383 156.389,284.883 156.5,285.5C 153.615,285.194 150.948,285.527 148.5,286.5C 148.5,287.833 148.5,289.167 148.5,290.5C 151.5,290.5 154.5,290.5 157.5,290.5C 157.5,291.5 157.5,292.5 157.5,293.5C 153.833,293.5 150.167,293.5 146.5,293.5C 146.5,288.167 146.5,282.833 146.5,277.5C 149.833,277.5 153.167,277.5 156.5,277.5 Z"/></g>
<g><path style="opacity:0.933" fill="#a4b7c9" d="M 321.5,286.5 C 321.328,287.492 321.662,288.158 322.5,288.5C 321.89,289.391 321.557,290.391 321.5,291.5C 318.827,288.659 316.327,285.659 314,282.5C 313.825,286.211 313.325,289.878 312.5,293.5C 311.167,288.167 311.167,282.833 312.5,277.5C 315.735,280.34 318.735,283.34 321.5,286.5 Z"/></g>
<g><path style="opacity:0.612" fill="#88a0bc" d="M 323.5,278.5 C 324.814,283.348 324.814,288.348 323.5,293.5C 322.893,293.376 322.56,293.043 322.5,292.5C 323.486,288.03 323.819,283.363 323.5,278.5 Z"/></g>
<g><path style="opacity:0.753" fill="#99aabe" d="M 41.5,278.5 C 42.3864,277.224 43.3864,277.224 44.5,278.5C 45.9674,282.069 47.1341,285.736 48,289.5C 49.4774,285.57 50.6441,281.57 51.5,277.5C 52.8221,277.33 53.9887,277.663 55,278.5C 55.8752,281.628 57.0419,284.628 58.5,287.5C 59.9581,284.628 61.1248,281.628 62,278.5C 63.1562,277.007 63.9896,277.174 64.5,279C 63.1563,284.222 61.1563,289.055 58.5,293.5C 56.3788,289.965 54.5455,286.298 53,282.5C 51.6942,285.612 50.5276,288.779 49.5,292C 49.1501,293.257 48.4835,293.591 47.5,293C 45.3809,288.124 43.3809,283.29 41.5,278.5 Z"/></g>
<g><path style="opacity:0.004" fill="#000000" d="M 319.5,282.5 C 320.833,283.167 320.833,283.167 319.5,282.5 Z"/></g>
<g><path style="opacity:0.999" fill="#cde0e5" d="M 323.5,278.5 C 323.819,283.363 323.486,288.03 322.5,292.5C 321.833,292.5 321.5,292.167 321.5,291.5C 321.557,290.391 321.89,289.391 322.5,288.5C 322.672,287.508 322.338,286.842 321.5,286.5C 321.963,283.67 322.629,281.003 323.5,278.5 Z"/></g>
<g><path style="opacity:0.992" fill="#c4d6df" d="M 81.5,284.5 C 79.1667,285.167 76.8333,285.833 74.5,286.5C 74.5,287.833 74.5,289.167 74.5,290.5C 76.9686,291.317 79.6353,291.817 82.5,292C 79.1832,292.498 75.8499,292.665 72.5,292.5C 72.5,287.5 72.5,282.5 72.5,277.5C 76.226,277.177 79.8927,277.511 83.5,278.5C 80.5719,279.484 77.5719,279.817 74.5,279.5C 74.5,280.833 74.5,282.167 74.5,283.5C 77.0593,283.198 79.3926,283.532 81.5,284.5 Z"/></g>
<g><path style="opacity:0.106" fill="#2e3f55" d="M 93.5,279.5 C 93.8333,279.5 94.1667,279.5 94.5,279.5C 94.5,280.833 94.5,282.167 94.5,283.5C 96.5,283.5 98.5,283.5 100.5,283.5C 98.3926,284.468 96.0593,284.802 93.5,284.5C 93.5,282.833 93.5,281.167 93.5,279.5 Z"/></g>
<g><path style="opacity:0.475" fill="#60768b" d="M 186.5,277.5 C 186.5,282.5 186.5,287.5 186.5,292.5C 189.833,292.5 193.167,292.5 196.5,292.5C 193.038,293.482 189.371,293.815 185.5,293.5C 185.179,287.974 185.512,282.64 186.5,277.5 Z"/></g>
<g><path style="opacity:0.098" fill="#3f556b" d="M 195.5,277.5 C 196.043,277.56 196.376,277.893 196.5,278.5C 194.031,279.036 191.864,280.036 190,281.5C 189.667,280.833 189.333,280.167 189,279.5C 188.51,280.793 188.343,282.127 188.5,283.5C 191.059,283.198 193.393,283.532 195.5,284.5C 192.833,284.5 190.167,284.5 187.5,284.5C 187.5,282.5 187.5,280.5 187.5,278.5C 190.385,278.806 193.052,278.473 195.5,277.5 Z"/></g>
<g><path style="opacity:0.927" fill="#9cb3c5" d="M 279.5,279.5 C 279.833,280.833 280.167,282.167 280.5,283.5C 280.167,283.5 279.833,283.5 279.5,283.5C 278.662,283.842 278.328,284.508 278.5,285.5C 277.662,285.842 277.328,286.508 277.5,287.5C 276.662,287.842 276.328,288.508 276.5,289.5C 275.542,289.953 274.708,290.619 274,291.5C 272.667,289.5 271.333,287.5 270,285.5C 268.938,288.029 268.105,290.696 267.5,293.5C 266.167,288.167 266.167,282.833 267.5,277.5C 269.902,280.626 272.069,283.96 274,287.5C 276.087,284.93 277.92,282.263 279.5,279.5 Z"/></g>
<g><path style="opacity:0.004" fill="#000000" d="M 273.5,283.5 C 274.833,284.167 274.833,284.167 273.5,283.5 Z"/></g>
<g><path style="opacity:0.094" fill="#3e506b" d="M 302.5,278.5 C 299.313,278.962 296.646,280.462 294.5,283C 297.036,283.186 299.369,283.686 301.5,284.5C 298.833,284.5 296.167,284.5 293.5,284.5C 293.5,282.5 293.5,280.5 293.5,278.5C 296.5,278.5 299.5,278.5 302.5,278.5 Z"/></g>
<g><path style="opacity:0.099" fill="#304560" d="M 125.5,279.5 C 125.833,279.5 126.167,279.5 126.5,279.5C 126.5,283.167 126.5,286.833 126.5,290.5C 128.5,290.5 130.5,290.5 132.5,290.5C 132.5,290.833 132.5,291.167 132.5,291.5C 130.167,291.5 127.833,291.5 125.5,291.5C 125.5,287.5 125.5,283.5 125.5,279.5 Z"/></g>
<g><path style="opacity:0.004" fill="#000000" d="M 183.5,284.5 C 184.833,285.167 184.833,285.167 183.5,284.5 Z"/></g>
<g><path style="opacity:0.996" fill="#e1f6fa" d="M 186.5,277.5 C 189.5,277.5 192.5,277.5 195.5,277.5C 193.052,278.473 190.385,278.806 187.5,278.5C 187.5,280.5 187.5,282.5 187.5,284.5C 190.167,284.5 192.833,284.5 195.5,284.5C 195.5,284.833 195.5,285.167 195.5,285.5C 192.833,285.5 190.167,285.5 187.5,285.5C 187.5,287.5 187.5,289.5 187.5,291.5C 190.5,291.5 193.5,291.5 196.5,291.5C 197.833,291.833 197.833,292.167 196.5,292.5C 193.167,292.5 189.833,292.5 186.5,292.5C 186.5,287.5 186.5,282.5 186.5,277.5 Z"/></g>
<g><path style="opacity:0.859" fill="#9aabbe" d="M 246.5,278.5 C 246.5,278.167 246.5,277.833 246.5,277.5C 249.518,277.335 252.518,277.502 255.5,278C 259.594,281.758 259.26,284.924 254.5,287.5C 254.158,286.662 253.492,286.328 252.5,286.5C 255.133,285.34 255.966,283.34 255,280.5C 252.959,279.577 250.792,279.244 248.5,279.5C 248.5,281.833 248.5,284.167 248.5,286.5C 247.833,283.833 247.167,281.167 246.5,278.5 Z M 252.5,286.5 C 251.167,286.5 249.833,286.5 248.5,286.5C 248.5,284.167 248.5,281.833 248.5,279.5C 250.792,279.244 252.959,279.577 255,280.5C 255.966,283.34 255.133,285.34 252.5,286.5 Z"/></g>
<g><path style="opacity:0.007" fill="#131424" d="M 279.5,283.5 C 279.5,284.167 279.833,284.5 280.5,284.5C 280.5,285.5 280.5,286.5 280.5,287.5C 279.833,287.5 279.167,287.5 278.5,287.5C 278.5,286.833 278.5,286.167 278.5,285.5C 278.328,284.508 278.662,283.842 279.5,283.5 Z"/></g>
<g><path style="opacity:0.255" fill="#3b5274" d="M 81.5,284.5 C 82.0431,284.56 82.3764,284.893 82.5,285.5C 79.9135,286.48 77.2469,286.813 74.5,286.5C 76.8333,285.833 79.1667,285.167 81.5,284.5 Z"/></g>
<g><path style="opacity:0.269" fill="#394f69" d="M 148.5,286.5 C 150.948,285.527 153.615,285.194 156.5,285.5C 153.906,286.89 151.239,287.223 148.5,286.5 Z"/></g>
<g><path style="opacity:0.996" fill="#effeff" d="M 246.5,278.5 C 247.167,281.167 247.833,283.833 248.5,286.5C 249.833,286.5 251.167,286.5 252.5,286.5C 253.492,286.328 254.158,286.662 254.5,287.5C 252.167,287.5 249.833,287.5 247.5,287.5C 247.66,289.199 247.494,290.866 247,292.5C 246.501,287.845 246.334,283.179 246.5,278.5 Z"/></g>
<g><path style="opacity:0.996" fill="#dff4f8" d="M 281.5,277.5 C 281.821,282.695 281.487,287.695 280.5,292.5C 280.5,290.833 280.5,289.167 280.5,287.5C 280.5,286.5 280.5,285.5 280.5,284.5C 280.5,284.167 280.5,283.833 280.5,283.5C 280.167,282.167 279.833,280.833 279.5,279.5C 279.5,278.167 280.167,277.5 281.5,277.5 Z"/></g>
<g><path style="opacity:0.004" fill="#000000" d="M 52.5,286.5 C 53.8333,287.167 53.8333,287.167 52.5,286.5 Z"/></g>
<g><path style="opacity:0.471" fill="#61788d" d="M 92.5,277.5 C 92.5,282.5 92.5,287.5 92.5,292.5C 95.1667,292.5 97.8333,292.5 100.5,292.5C 97.7131,293.477 94.7131,293.81 91.5,293.5C 91.1786,287.974 91.5119,282.64 92.5,277.5 Z"/></g>
<g><path style="opacity:0.996" fill="#e5fbfe" d="M 292.5,277.5 C 296.042,277.187 299.375,277.521 302.5,278.5C 299.5,278.5 296.5,278.5 293.5,278.5C 293.5,280.5 293.5,282.5 293.5,284.5C 296.167,284.5 298.833,284.5 301.5,284.5C 301.5,284.833 301.5,285.167 301.5,285.5C 298.833,285.5 296.167,285.5 293.5,285.5C 293.5,287.5 293.5,289.5 293.5,291.5C 296.518,291.335 299.518,291.502 302.5,292C 299.183,292.498 295.85,292.665 292.5,292.5C 292.5,287.5 292.5,282.5 292.5,277.5 Z"/></g>
<g><path style="opacity:0.006" fill="#130423" d="M 221.5,288.5 C 220.923,289.773 220.257,289.773 219.5,288.5C 219.97,287.537 220.637,287.537 221.5,288.5 Z"/></g>
<g><path style="opacity:0.004" fill="#000000" d="M 53.5,288.5 C 54.525,288.897 54.6917,289.563 54,290.5C 53.5357,289.906 53.369,289.239 53.5,288.5 Z"/></g>
<g><path style="opacity:0.949" fill="#9db0c1" d="M 163.5,277.5 C 164.675,277.281 165.675,277.614 166.5,278.5C 167.903,281.875 169.403,285.209 171,288.5C 173.195,284.765 175.362,281.099 177.5,277.5C 177.833,278 178.167,278.5 178.5,279C 176.641,284.084 174.308,288.917 171.5,293.5C 167.89,288.689 165.223,283.356 163.5,277.5 Z"/></g>
<g><path style="opacity:0.004" fill="#000000" d="M 170.5,284.5 C 171.833,285.167 171.833,285.167 170.5,284.5 Z"/></g>
<g><path style="opacity:0.11" fill="#3a4e6c" d="M 102.5,284.5 C 102.5,284.833 102.5,285.167 102.5,285.5C 102.5,286.167 102.5,286.833 102.5,287.5C 99.9455,286.612 97.2788,286.279 94.5,286.5C 94.5,287.833 94.5,289.167 94.5,290.5C 96.5,290.5 98.5,290.5 100.5,290.5C 98.3926,291.468 96.0593,291.802 93.5,291.5C 93.5,289.5 93.5,287.5 93.5,285.5C 96.6085,285.736 99.6085,285.403 102.5,284.5 Z"/></g>
<g><path style="opacity:0.859" fill="#98adc3" d="M 131.5,277.5 C 138.497,279.443 140.33,283.776 137,290.5C 135.67,291.582 134.17,292.249 132.5,292.5C 132.5,292.167 132.5,291.833 132.5,291.5C 132.5,291.167 132.5,290.833 132.5,290.5C 136.278,288.286 137.112,285.286 135,281.5C 132.435,279.821 129.602,279.154 126.5,279.5C 126.167,279.5 125.833,279.5 125.5,279.5C 127.5,278.833 129.5,278.167 131.5,277.5 Z"/></g>
<g><path style="opacity:0.008" fill="#15145f" d="M 277.5,287.5 C 277.833,287.5 278.167,287.5 278.5,287.5C 278.719,288.675 278.386,289.675 277.5,290.5C 276.893,290.376 276.56,290.043 276.5,289.5C 277.338,289.158 277.672,288.492 277.5,287.5 Z"/></g>
<g><path style="opacity:0.996" fill="#e8fbfe" d="M 124.5,277.5 C 126.833,277.5 129.167,277.5 131.5,277.5C 129.5,278.167 127.5,278.833 125.5,279.5C 125.5,283.5 125.5,287.5 125.5,291.5C 127.833,291.5 130.167,291.5 132.5,291.5C 132.5,291.833 132.5,292.167 132.5,292.5C 132.167,292.5 131.833,292.5 131.5,292.5C 129.167,292.5 126.833,292.5 124.5,292.5C 124.5,287.5 124.5,282.5 124.5,277.5 Z"/></g>
<g><path style="opacity:0.227" fill="#3d5876" d="M 195.5,285.5 C 193.393,286.468 191.059,286.802 188.5,286.5C 188.5,287.833 188.5,289.167 188.5,290.5C 191.385,290.194 194.052,290.527 196.5,291.5C 193.5,291.5 190.5,291.5 187.5,291.5C 187.5,289.5 187.5,287.5 187.5,285.5C 190.167,285.5 192.833,285.5 195.5,285.5 Z"/></g>
<g><path style="opacity:0.49" fill="#6a84a0" d="M 281.5,277.5 C 282.815,282.68 282.815,288.014 281.5,293.5C 280.893,293.376 280.56,293.043 280.5,292.5C 281.487,287.695 281.821,282.695 281.5,277.5 Z"/></g>
<g><path style="opacity:0.235" fill="#3e5972" d="M 292.5,277.5 C 292.5,282.5 292.5,287.5 292.5,292.5C 295.85,292.665 299.183,292.498 302.5,292C 299.518,291.502 296.518,291.335 293.5,291.5C 293.5,289.5 293.5,287.5 293.5,285.5C 296.167,285.5 298.833,285.5 301.5,285.5C 299.987,286.51 297.653,286.843 294.5,286.5C 294.5,287.833 294.5,289.167 294.5,290.5C 297.5,290.5 300.5,290.5 303.5,290.5C 303.5,291.5 303.5,292.5 303.5,293.5C 299.5,293.5 295.5,293.5 291.5,293.5C 291.179,287.974 291.512,282.64 292.5,277.5 Z"/></g>
<g><path style="opacity:0.996" fill="#d9edf4" d="M 92.5,277.5 C 94.5,277.5 96.5,277.5 98.5,277.5C 96.8333,278.167 95.1667,278.833 93.5,279.5C 93.5,281.167 93.5,282.833 93.5,284.5C 96.0593,284.802 98.3926,284.468 100.5,283.5C 100.833,283.5 101.167,283.5 101.5,283.5C 102.167,283.5 102.5,283.833 102.5,284.5C 99.6085,285.403 96.6085,285.736 93.5,285.5C 93.5,287.5 93.5,289.5 93.5,291.5C 96.0593,291.802 98.3926,291.468 100.5,290.5C 101.906,290.027 102.573,289.027 102.5,287.5C 102.5,286.833 102.5,286.167 102.5,285.5C 103.693,285.97 104.36,286.97 104.5,288.5C 104.821,291.512 103.488,292.845 100.5,292.5C 97.8333,292.5 95.1667,292.5 92.5,292.5C 92.5,287.5 92.5,282.5 92.5,277.5 Z M 102.5,287.5 C 102.573,289.027 101.906,290.027 100.5,290.5C 98.5,290.5 96.5,290.5 94.5,290.5C 94.5,289.167 94.5,287.833 94.5,286.5C 97.2788,286.279 99.9455,286.612 102.5,287.5 Z"/></g>
<g><path style="opacity:0.004" fill="#000000" d="M 183.5,291.5 C 184.833,292.167 184.833,292.167 183.5,291.5 Z"/></g>
<g><path style="opacity:0.114" fill="#2f4365" d="M 74.5,290.5 C 77.5,290.5 80.5,290.5 83.5,290.5C 83.5,291.5 83.5,292.5 83.5,293.5C 79.6286,293.815 75.9619,293.482 72.5,292.5C 75.8499,292.665 79.1832,292.498 82.5,292C 79.6353,291.817 76.9686,291.317 74.5,290.5 Z"/></g>
<g><path style="opacity:0.11" fill="#253858" d="M 205.5,290.5 C 208.337,292.402 211.671,293.069 215.5,292.5C 212.038,293.482 208.371,293.815 204.5,293.5C 204.263,292.209 204.596,291.209 205.5,290.5 Z"/></g>
</svg>
